<svg xmlns="http://www.w3.org/2000/svg" width="900" height="700" viewBox="0 0 900 700" role="img" aria-label="Halo Desk Fan">
  <rect width="900" height="700" rx="36" fill="#172033"/>
  <circle cx="690" cy="126" r="160" fill="#7dd3a8" opacity=".15"/>
  <circle cx="450" cy="300" r="160" fill="#203846"/>
  <circle cx="450" cy="300" r="96" fill="#f8fafc"/>
  <circle cx="450" cy="300" r="26" fill="#7dd3a8"/>
  <path d="M450 300 380 248a94 94 0 0 1 140 0Z" fill="#f4c95d"/>
  <path d="M450 300 400 384a94 94 0 0 1-36-130Z" fill="#d1fae5"/>
  <path d="M450 300 536 340a94 94 0 0 1-100 74Z" fill="#94a3b8"/>
  <rect x="424" y="438" width="52" height="88" rx="24" fill="#f8fafc"/>
  <rect x="330" y="522" width="240" height="28" rx="14" fill="#7dd3a8"/>
</svg>
