<svg xmlns="http://www.w3.org/2000/svg" width="900" height="1100" viewBox="0 0 900 1100" role="img" aria-label="NovaMart product collection">
  <defs>
    <linearGradient id="bg" x1="0" y1="0" x2="1" y2="1">
      <stop offset="0" stop-color="#1f2937"/>
      <stop offset="1" stop-color="#0f172a"/>
    </linearGradient>
    <linearGradient id="mint" x1="0" y1="0" x2="1" y2="1">
      <stop offset="0" stop-color="#7dd3a8"/>
      <stop offset="1" stop-color="#2f9e6d"/>
    </linearGradient>
  </defs>
  <rect width="900" height="1100" rx="44" fill="url(#bg)"/>
  <circle cx="760" cy="132" r="170" fill="#7dd3a8" opacity=".16"/>
  <circle cx="132" cy="930" r="210" fill="#f4c95d" opacity=".12"/>
  <rect x="96" y="155" width="330" height="390" rx="38" fill="#111827" stroke="#334155" stroke-width="3"/>
  <path d="M178 210h166c34 0 62 28 62 62v188H116V272c0-34 28-62 62-62Z" fill="url(#mint)"/>
  <path d="M184 206c11-70 143-70 154 0" fill="none" stroke="#d1fae5" stroke-width="25" stroke-linecap="round"/>
  <rect x="520" y="230" width="230" height="520" rx="42" fill="#e5e7eb"/>
  <rect x="570" y="280" width="130" height="245" rx="65" fill="#0f172a"/>
  <circle cx="635" cy="612" r="56" fill="url(#mint)"/>
  <rect x="192" y="640" width="255" height="310" rx="32" fill="#f8fafc"/>
  <rect x="235" y="690" width="170" height="170" rx="28" fill="#f4c95d"/>
  <rect x="247" y="865" width="146" height="28" rx="14" fill="#111827"/>
  <path d="M565 860c40-66 158-66 198 0v54H565v-54Z" fill="#f8fafc"/>
  <path d="M614 798h102" stroke="#7dd3a8" stroke-width="38" stroke-linecap="round"/>
  <g opacity=".75">
    <rect x="96" y="82" width="178" height="34" rx="17" fill="#e5e7eb"/>
    <rect x="118" y="586" width="132" height="20" rx="10" fill="#7dd3a8"/>
    <rect x="540" y="802" width="190" height="20" rx="10" fill="#f4c95d"/>
  </g>
</svg>
