<svg xmlns="http://www.w3.org/2000/svg" width="900" height="700" viewBox="0 0 900 700" role="img" aria-label="Mira Ceramic Mug">
  <rect width="900" height="700" rx="36" fill="#16202f"/>
  <circle cx="702" cy="132" r="172" fill="#7dd3a8" opacity=".13"/>
  <rect x="275" y="205" width="300" height="310" rx="44" fill="#f8fafc"/>
  <path d="M575 286h48c65 0 65 143 0 143h-48" fill="none" stroke="#f8fafc" stroke-width="42" stroke-linecap="round"/>
  <rect x="312" y="260" width="226" height="52" rx="26" fill="#7dd3a8"/>
  <rect x="336" y="344" width="178" height="22" rx="11" fill="#111827" opacity=".18"/>
  <ellipse cx="425" cy="520" rx="220" ry="34" fill="#0f172a" opacity=".7"/>
  <path d="M328 160c-18-30 22-48 0-78M430 150c-18-30 22-48 0-78M532 160c-18-30 22-48 0-78" fill="none" stroke="#f4c95d" stroke-width="16" stroke-linecap="round"/>
</svg>
